<svg id="Layer_1" enable-background="new 0 0 512.002 512.002" height="512" viewBox="0 0 512.002 512.002" width="512" xmlns="http://www.w3.org/2000/svg"><g><g clip-rule="evenodd" fill-rule="evenodd"><path d="m402 10c55.229 0 100 44.771 100 100s-44.771 100-100 100c-19.133 0-37.009-5.377-52.206-14.697-10.707 2.873-21.413 5.745-32.121 8.615-5.715 1.613-11.188-3.616-9.622-9.493 2.88-10.748 5.761-21.486 8.642-32.225-9.318-15.194-14.693-33.069-14.693-52.2 0-55.228 44.771-100 100-100z" fill="#cbe558"/><g><path d="m212.797 360.133c-5.663-2.142-11.487-3.949-17.447-5.397l-.057-.032c-11.109 3.37-22.878 5.183-35.05 5.183-12.16 0-23.918-1.81-35.018-5.173-5.991 1.451-11.845 3.266-17.536 5.418l11.914 49.933h81.277z" fill="#ffdcd5"/><path d="m200.882 410.066h-81.276l21.938 91.936h37.4z" fill="#ff5a58"/><path d="m141.544 502.002-21.938-91.936-11.916-49.933c-10.745 4.064-20.911 9.335-30.328 15.645l-2.074 61.87 26.646 11.687-31.321 26.179 31.788 26.489h39.143z" fill="#6d91ac"/><path d="m200.882 410.066-21.938 91.936h39.143l31.788-26.489-31.321-26.179 26.646-11.687-2.074-61.87c-9.418-6.309-19.583-11.58-30.328-15.644z" fill="#6d91ac"/><path d="m218.554 449.334 31.321 26.179-31.788 26.489h91.75v-1.871c0-39.819-15.769-76.131-41.369-103.004-7.627-8.007-16.127-15.175-25.342-21.349l2.074 61.87z" fill="#8aa7bd"/><path d="m70.613 475.513 31.321-26.179-26.646-11.687 2.074-61.87c-9.215 6.174-17.715 13.342-25.342 21.349-25.601 26.873-41.369 63.185-41.369 103.004v1.871h91.75z" fill="#8aa7bd"/><path d="m141.546 182.244h-83.788c0 10.285-8.415 18.699-18.699 18.699l-5.034.001c-6.916 0-13.155 3.044-17.444 7.858-3.684 4.135-5.93 9.576-5.93 15.516 0 8.622 4.731 16.192 11.724 20.243 3.435 1.99 7.415 3.131 11.649 3.131h5.034c4.381 56.896 47.903 101.898 101.888 110.654 6.288 1.014 12.734 1.541 19.297 1.541 1.504 0 3.002-.027 4.493-.083.535-.02 1.07-.044 1.606-.071 59.715-3.062 110.324-50.181 115.087-112.041h5.034c4.234 0 8.215-1.141 11.65-3.131 6.994-4.051 11.724-11.622 11.724-20.243 0-6.963-3.085-13.239-7.956-17.531-4.123-3.633-9.525-5.843-15.418-5.843-1.678 0-3.356.001-5.034-.003-10.284 0-18.698-8.414-18.699-18.697h-8.989c-30.854 0-56.097-25.244-56.097-56.097-.001 30.853-25.244 56.097-56.098 56.097z" fill="#ffdcd5"/><path d="m57.758 182.244h83.788c30.854 0 56.097-25.244 56.097-56.097l2.203-49.243c-2.563 28.522-26.712 51.07-55.872 51.07h-126.215c-4.605 13.214-7.108 27.413-7.108 42.197 0 13.464 2.08 26.443 5.93 38.632 4.289-4.814 10.528-7.858 17.444-7.858l5.034-.001c10.284-.001 18.699-8.415 18.699-18.7z" fill="#d1a184"/><path d="m17.759 127.973h126.215c29.16 0 53.308-22.548 55.872-51.069l.225-5.028.625-13.967c-18.345-10.133-39.435-15.907-61.876-15.907-56.002 0-103.615 35.916-121.061 85.971z" fill="#c68a65"/><path d="m200.071 71.876c0 30.853 25.244 56.097 56.097 56.097h46.788c-15.515-41.272-55.538-70.503-102.26-70.065z" fill="#c68a65"/><path d="m256.168 127.973c-30.854 0-56.097-25.244-56.097-56.097 0 1.694-.076 3.371-.225 5.028l-2.203 49.242c0 30.854 25.244 56.097 56.097 56.097h8.989c.001 10.284 8.415 18.697 18.699 18.697 1.678.004 3.356.003 5.034.003 5.893 0 11.296 2.21 15.417 5.844 5.127-12.582 7.957-26.344 7.957-40.769 0-13.395-2.434-26.216-6.881-38.047h-46.787z" fill="#d1a184"/><path d="m281.429 247.692c-4.763 61.86-55.372 108.979-115.087 112.043 10.009-.501 19.708-2.227 28.952-5.031l.057.032c5.96 1.448 11.784 3.254 17.447 5.397 10.745 4.064 20.911 9.335 30.328 15.645 14.071 9.427 26.473 21.172 36.647 34.678 61.988-30.718 9.473-92.621 18.34-165.894-3.435 1.99-7.415 3.131-11.65 3.131h-5.034z" fill="#c68a65"/><path d="m39.059 247.692c4.763 61.86 55.372 108.979 115.087 112.043-10.009-.501-19.708-2.227-28.952-5.031l-.057.032c-5.96 1.448-11.784 3.254-17.447 5.397-10.745 4.064-20.911 9.335-30.328 15.645-14.071 9.427-26.473 21.172-36.647 34.678-61.988-30.718-9.473-92.621-18.34-165.894 3.435 1.99 7.415 3.131 11.649 3.131h5.035z" fill="#c68a65"/><g fill="#cff5fd"><path d="m146.219 229.279c0-6.072-4.967-11.039-11.039-11.039h-44.772c-6.072 0-11.039 4.967-11.039 11.039v11.868c0 12.599 10.308 22.906 22.906 22.906h21.037c12.599 0 22.906-10.308 22.906-22.906v-11.868z"/><path d="m174.268 229.279v11.868c0 12.599 10.308 22.906 22.906 22.906h21.037c12.599 0 22.907-10.308 22.907-22.906v-11.868c0-6.072-4.967-11.039-11.039-11.039h-44.771c-6.072 0-11.04 4.967-11.04 11.039z"/></g></g><path d="m347.002 122.645 25.902 25.902c7.81 7.809 20.472 7.809 28.281 0l48.812-48.812c7.81-7.81 7.81-20.472 0-28.281-7.809-7.809-20.472-7.809-28.281 0l-34.671 34.671-11.761-11.761c-7.809-7.809-20.472-7.809-28.281 0-7.81 7.809-7.81 20.471-.001 28.281z" fill="#fff"/></g><g><path d="m176.807 292.86c-4.424 4.425-10.307 6.861-16.563 6.861s-12.14-2.437-16.563-6.861c-3.906-3.905-10.236-3.905-14.143 0-3.905 3.905-3.905 10.237 0 14.143 8.202 8.202 19.107 12.719 30.706 12.719s22.504-4.517 30.706-12.719c3.905-3.905 3.905-10.237 0-14.143-3.907-3.905-10.237-3.905-14.143 0z"/><path d="m402 0c-54.418 0-99.725 39.723-108.468 91.693-2.702-3.323-5.592-6.526-8.679-9.584-21.94-21.735-50.836-33.82-81.624-34.196-19.748-10.416-41.96-15.911-64.409-15.911-76.187 0-138.17 61.982-138.17 138.168 0 12.466 1.664 24.786 4.94 36.698-3.13 5.081-4.94 11.058-4.94 17.45 0 10.385 4.773 19.672 12.234 25.797 2.073 24.016-2.614 47.424-6.785 68.201-4.008 19.962-7.794 38.818-5.296 55.729 2.467 16.702 10.859 29.729 25.506 39.595-16.628 25.692-25.659 55.865-25.659 86.49v1.872c0 5.523 4.478 10 10 10h299.187c5.522 0 10-4.477 10-10v-1.872c0-30.625-9.031-60.8-25.66-86.492 14.711-9.908 23.113-23.004 25.539-39.819 2.432-16.851-1.338-35.625-5.328-55.501-4.172-20.779-8.858-44.187-6.786-68.204 7.461-6.126 12.234-15.412 12.234-25.796 0-3.598-.579-7.062-1.638-10.311.708-.105 1.413-.249 2.111-.443 9.347-2.505 18.693-5.012 28.039-7.519 16.343 9.143 34.798 13.956 53.651 13.956 60.653 0 109.999-49.346 109.999-110s-49.345-110.001-109.998-110.001zm-168.698 381.18 1.677 50.03-20.441 8.966c-3.17 1.39-5.396 4.321-5.884 7.748-.487 3.427.831 6.863 3.487 9.083l22.127 18.495-19.802 16.5h-22.856l28.185-118.111c4.661 2.192 9.166 4.631 13.507 7.289zm-83.863 110.822-17.166-71.936h55.942l-17.166 71.936zm-43.418 0-19.802-16.5 22.127-18.495c2.656-2.22 3.975-5.656 3.487-9.083s-2.714-6.358-5.884-7.748l-20.441-8.966 1.677-50.032c4.341-2.658 8.845-5.097 13.507-7.289l28.185 118.112h-22.856zm89.395-126.933c1.867.488 3.716 1.012 5.548 1.571l-7.976 33.426h-65.488l-7.977-33.427c1.811-.552 3.638-1.071 5.483-1.555 11.34 3.175 23.126 4.81 35.092 4.809 2.244 0 4.5-.058 6.755-.173 9.837-.504 19.398-2.094 28.563-4.651zm-29.586-15.322c-59.815 3.063-112.201-43.059-116.801-102.822-.401-5.21-4.745-9.232-9.971-9.232h-5.034c-7.374 0-13.374-6-13.374-13.374s6-13.374 13.377-13.374h1.869l33.473 23.53v6.673c0 18.145 14.762 32.906 32.906 32.906h21.037c16.767 0 30.635-12.608 32.646-28.84h8.569c2.011 16.232 15.879 28.84 32.647 28.84h21.036c18.145 0 32.906-14.762 32.906-32.906v-6.673l33.473-23.53 1.873.001c7.374 0 13.373 6 13.373 13.374s-5.999 13.374-13.373 13.374h-5.034c-5.225 0-9.569 4.022-9.971 9.232-4.292 55.748-49.702 99.952-105.627 102.821zm90.338-211.773h39.438c.524 1.997 1.108 3.977 1.744 5.94 1.64 7.165 2.486 14.569 2.486 22.107 0 9.007-1.227 17.839-3.611 26.384-3.089-.947-6.367-1.46-9.762-1.46l-5.014-.003c-.007 0-.014 0-.021 0-4.796 0-8.698-3.902-8.699-8.698 0-5.522-4.478-9.999-10-9.999h-8.989c-25.369 0-46.015-20.601-46.094-45.952l.409-9.15c12.064 12.813 29.168 20.831 48.113 20.831zm-58.525 23.098c11.688 18.703 32.465 31.172 56.098 31.172h.787c1.498 4.016 3.876 7.604 6.89 10.541l-16.499 11.598c-3.807-3.793-9.055-6.143-14.841-6.143h-44.771c-10.21 0-18.737 7.313-20.638 16.974h-8.854c-1.9-9.661-10.428-16.974-20.638-16.974h-44.769c-5.786 0-11.033 2.35-14.841 6.143l-16.497-11.597c3.015-2.938 5.393-6.526 6.891-10.542h75.585c23.633 0 44.41-12.469 56.097-31.172zm33.474 68.207v11.868c0 7.117-5.79 12.906-12.906 12.906h-21.036c-7.117 0-12.907-5.79-12.907-12.906v-11.868c0-.554.486-1.04 1.04-1.04h44.771c.553.001 1.038.487 1.038 1.04zm-94.898 0v11.868c0 7.117-5.79 12.906-12.906 12.906h-21.037c-7.116 0-12.906-5.79-12.906-12.906v-11.868c0-.554.485-1.04 1.039-1.04h44.771c.552.001 1.039.487 1.039 1.04zm151.1-111.305h-31.151c-25.368 0-46.013-20.599-46.094-45.95l.168-3.759c22.849 1.941 44.046 11.718 60.535 28.052 6.582 6.52 12.12 13.807 16.542 21.657zm-148.5-65.972c17.899 0 35.608 4.092 51.6 11.854l-.544 12.161c-2.102 23.484-21.88 41.957-45.901 41.957h-30.956c-5.522 0-10 4.477-10 10s4.478 10 10 10h30.956c16.824 0 32.197-6.323 43.877-16.712l-.198 4.438c-.003.077.003.151.001.228-.001.074-.011.145-.011.219 0 25.418-20.679 46.098-46.097 46.098h-83.788c-5.522 0-10 4.477-10 10 0 4.796-3.902 8.699-8.702 8.699l-5.031.001c-3.923 0-7.687.686-11.187 1.935-1.45-7.447-2.188-15.044-2.188-22.708 0-65.16 53.011-118.17 118.169-118.17zm-113.111 270.252c3.096-15.424 6.45-32.214 7.418-50.049 6.639 24.928 20.547 47.415 40.437 64.875 7.334 6.437 15.24 11.975 23.577 16.577-22.581 9.827-42.879 24.88-58.916 43.898-23.257-15.13-20.187-37.092-12.516-75.301zm40.953 74.25-1.368 40.808c-.138 4.089 2.23 7.85 5.978 9.493l11.868 5.206-18.939 15.83c-2.275 1.902-3.589 4.715-3.587 7.68s1.32 5.777 3.599 7.675l10.568 8.806h-53.897c2.152-37.482 19.098-71.451 45.778-95.498zm179.047 95.498 10.568-8.806c2.278-1.898 3.597-4.71 3.599-7.675s-1.312-5.778-3.587-7.68l-18.939-15.83 11.868-5.206c3.747-1.643 6.115-5.403 5.978-9.493l-1.368-40.804c26.68 24.049 43.627 58.018 45.778 95.494zm36.557-94.446c-16.036-19.016-36.332-34.07-58.912-43.897 31.111-17.105 54.641-46.405 64.005-81.49.965 17.85 4.321 34.652 7.42 50.087 7.682 38.258 10.75 60.173-12.513 75.3zm119.735-197.555c-16.63 0-32.875-4.572-46.978-13.222-1.588-.974-3.399-1.476-5.229-1.476-.867 0-1.738.113-2.591.341l-2.002.537c-8.831 2.37-17.661 4.738-26.492 7.105 2.547-9.503 5.095-19 7.643-28.496.712-2.652.302-5.479-1.134-7.82-3.578-5.834-6.446-12.039-8.593-18.483-.693-2.921-1.497-5.808-2.409-8.656-1.457-6.469-2.215-13.117-2.215-19.831 0-49.626 40.374-90 90-90s89.999 40.374 89.999 90-40.373 90.001-89.999 90.001z"/><path d="m457.068 64.382c-11.697-11.695-30.727-11.695-42.424 0l-27.6 27.601-4.69-4.69c-5.665-5.666-13.198-8.787-21.212-8.787-8.013 0-15.546 3.121-21.212 8.786-5.666 5.666-8.786 13.199-8.786 21.212s3.12 15.546 8.786 21.212l25.902 25.902c5.849 5.848 13.53 8.772 21.212 8.772s15.363-2.924 21.212-8.772l48.812-48.812c5.665-5.666 8.786-13.199 8.786-21.212.001-8.012-3.12-15.546-8.786-21.212zm-14.142 28.282-48.812 48.812c-3.898 3.898-10.24 3.898-14.139 0l-25.902-25.902c-3.898-3.898-3.898-10.241 0-14.139 1.888-1.889 4.398-2.928 7.069-2.928s5.182 1.04 7.069 2.928l11.762 11.761c3.906 3.905 10.236 3.904 14.143 0l34.671-34.671c3.897-3.898 10.241-3.898 14.139 0 1.889 1.888 2.929 4.399 2.929 7.069 0 2.671-1.04 5.181-2.929 7.07z"/><path d="m68.022 137.974c5.522 0 10-4.477 10-10s-4.478-10-10-10h-.008c-5.522 0-9.996 4.477-9.996 10s4.481 10 10.004 10z"/></g></g></svg>