<svg id="Layer_1" enable-background="new 0 0 512.001 512.001" height="512" viewBox="0 0 512.001 512.001" width="512" xmlns="http://www.w3.org/2000/svg"><g><g clip-rule="evenodd" fill-rule="evenodd"><g><path d="m401.999 10c55.229 0 100 44.772 100 100s-44.771 100-100 100c-19.133 0-37.009-5.377-52.206-14.697-10.707 2.873-21.413 5.745-32.121 8.614-5.715 1.613-11.188-3.616-9.622-9.493 2.88-10.748 5.761-21.486 8.642-32.225-9.319-15.194-14.693-33.069-14.693-52.2 0-55.228 44.771-99.999 100-99.999z" fill="#ff5a58"/><g><path d="m212.797 360.132c-5.663-2.142-11.487-3.949-17.447-5.397l-.057-.032c-11.109 3.37-22.878 5.183-35.05 5.183-12.16 0-23.918-1.81-35.018-5.173-5.991 1.451-11.845 3.266-17.536 5.418l11.915 49.933h81.277z" fill="#ffdcd5"/><path d="m200.881 410.066h-81.276l21.938 91.935h37.4z" fill="#ff5a58"/><path d="m141.543 502.001-21.938-91.936-11.916-49.933c-10.745 4.064-20.911 9.335-30.328 15.645l-2.074 61.87 26.646 11.687-31.321 26.179 31.788 26.489h39.143z" fill="#6d91ac"/><path d="m200.881 410.066-21.938 91.936h39.143l31.788-26.489-31.321-26.179 26.646-11.687-2.074-61.87c-9.418-6.309-19.583-11.58-30.328-15.644z" fill="#6d91ac"/><path d="m218.553 449.334 31.321 26.179-31.788 26.489h91.75v-1.871c0-39.819-15.768-76.131-41.369-103.005-7.627-8.007-16.127-15.175-25.342-21.349l2.074 61.87z" fill="#8aa7bd"/><path d="m70.612 475.513 31.321-26.179-26.646-11.687 2.074-61.87c-9.215 6.174-17.715 13.342-25.342 21.349-25.6 26.873-41.369 63.185-41.369 103.004v1.871h91.75z" fill="#8aa7bd"/><path d="m141.545 182.244h-83.788c0 10.285-8.415 18.699-18.699 18.699l-5.034.001c-6.916 0-13.155 3.044-17.444 7.858-3.684 4.135-5.93 9.576-5.93 15.516 0 8.622 4.731 16.192 11.724 20.243 3.435 1.99 7.415 3.131 11.65 3.131h5.034c4.381 56.896 47.903 101.898 101.888 110.654 6.288 1.014 12.734 1.541 19.297 1.541 1.504 0 3.002-.027 4.493-.083.535-.02 1.07-.044 1.606-.072 59.715-3.062 110.324-50.181 115.087-112.041h5.034c4.234 0 8.215-1.141 11.65-3.131 6.994-4.051 11.724-11.621 11.724-20.243 0-6.963-3.085-13.239-7.955-17.531-4.123-3.633-9.525-5.843-15.419-5.843-1.678 0-3.356.001-5.034-.003-10.284 0-18.698-8.413-18.699-18.697h-8.989c-30.854 0-56.097-25.244-56.097-56.097-.001 30.854-25.245 56.098-56.099 56.098z" fill="#ffdcd5"/><path d="m57.757 182.244h83.788c30.854 0 56.097-25.244 56.097-56.097l2.203-49.243c-2.563 28.522-26.712 51.07-55.872 51.07h-126.215c-4.605 13.214-7.108 27.413-7.108 42.197 0 13.464 2.08 26.442 5.93 38.632 4.289-4.814 10.528-7.858 17.444-7.858l5.034-.001c10.285-.001 18.699-8.416 18.699-18.7z" fill="#d1a184"/><path d="m17.758 127.973h126.215c29.16 0 53.308-22.548 55.872-51.069l.225-5.028.625-13.967c-18.345-10.133-39.435-15.907-61.876-15.907-56.002-.001-103.615 35.916-121.061 85.971z" fill="#c68a65"/><path d="m200.07 71.876c0 30.853 25.244 56.097 56.097 56.097h46.787c-15.515-41.272-55.538-70.503-102.26-70.064z" fill="#c68a65"/><path d="m256.167 127.973c-30.854 0-56.097-25.244-56.097-56.097 0 1.694-.076 3.371-.225 5.028l-2.203 49.242c0 30.854 25.244 56.097 56.097 56.097h8.989c.001 10.284 8.415 18.697 18.699 18.697 1.678.004 3.356.003 5.034.003 5.893 0 11.296 2.21 15.417 5.844 5.127-12.582 7.956-26.344 7.956-40.768 0-13.395-2.434-26.216-6.881-38.047h-46.786z" fill="#d1a184"/><path d="m281.428 247.692c-4.763 61.86-55.372 108.979-115.087 112.043 10.009-.501 19.708-2.227 28.952-5.031l.057.032c5.96 1.448 11.784 3.254 17.447 5.397 10.745 4.064 20.911 9.335 30.328 15.645 14.071 9.427 26.473 21.172 36.647 34.678 61.988-30.718 9.473-92.621 18.34-165.894-3.435 1.99-7.415 3.131-11.65 3.131h-5.034z" fill="#c68a65"/><path d="m39.058 247.692c4.763 61.86 55.372 108.979 115.087 112.043-10.009-.501-19.708-2.227-28.952-5.031l-.057.032c-5.96 1.448-11.784 3.254-17.447 5.397-10.745 4.064-20.911 9.335-30.328 15.645-14.071 9.427-26.473 21.172-36.647 34.678-61.988-30.718-9.472-92.621-18.34-165.894 3.435 1.99 7.415 3.131 11.65 3.131h5.034z" fill="#c68a65"/><g fill="#cff5fd"><path d="m146.218 229.279c0-6.072-4.967-11.039-11.039-11.039h-44.771c-6.072 0-11.039 4.967-11.039 11.039v11.868c0 12.598 10.308 22.906 22.906 22.906h21.037c12.599 0 22.906-10.308 22.906-22.906z"/><path d="m174.268 229.279v11.868c0 12.598 10.308 22.906 22.906 22.906h21.037c12.599 0 22.907-10.308 22.907-22.906v-11.868c0-6.072-4.967-11.039-11.039-11.039h-44.771c-6.073 0-11.04 4.967-11.04 11.039z"/></g></g></g><path d="m413.358 70.359c7.81-7.81 20.472-7.81 28.281 0 7.809 7.809 7.809 20.472 0 28.281l-11.359 11.36 11.36 11.36c7.809 7.809 7.809 20.472 0 28.281-7.81 7.81-20.472 7.81-28.281 0l-11.359-11.359-11.36 11.359c-7.809 7.81-20.472 7.81-28.281 0-7.809-7.809-7.809-20.472 0-28.281l11.36-11.36-11.361-11.36c-7.809-7.809-7.809-20.472 0-28.281 7.81-7.81 20.472-7.81 28.281 0l11.359 11.359z" fill="#fff"/></g><g><path d="m160.243 289.931c-11.6 0-22.504 4.517-30.706 12.719-3.905 3.906-3.905 10.237 0 14.143s10.237 3.904 14.142 0c4.424-4.425 10.306-6.861 16.563-6.861s12.139 2.437 16.563 6.861c1.953 1.952 4.512 2.929 7.071 2.929s5.119-.977 7.071-2.929c3.905-3.905 3.905-10.237 0-14.143-8.2-8.203-19.105-12.719-30.704-12.719z"/><path d="m401.999 0c-54.417 0-99.724 39.722-108.468 91.693-2.702-3.323-5.591-6.525-8.678-9.583-21.94-21.736-50.836-33.82-81.625-34.197-19.749-10.416-41.961-15.911-64.41-15.911-76.186-.001-138.168 61.981-138.168 138.168 0 12.466 1.664 24.787 4.94 36.698-3.13 5.081-4.94 11.058-4.94 17.451 0 10.385 4.773 19.672 12.235 25.798 2.072 24.015-2.614 47.423-6.786 68.2-4.008 19.962-7.793 38.817-5.296 55.729 2.467 16.702 10.859 29.728 25.507 39.594-16.629 25.691-25.66 55.864-25.66 86.49v1.871c0 5.522 4.477 10 10 10h299.186c5.523 0 10-4.478 10-10v-1.871c0-30.625-9.031-60.8-25.66-86.492 14.711-9.908 23.113-23.004 25.539-39.82 2.431-16.851-1.338-35.624-5.329-55.501-4.172-20.778-8.858-44.186-6.786-68.203 7.462-6.126 12.235-15.412 12.235-25.796 0-3.598-.579-7.062-1.638-10.311.71-.106 1.418-.25 2.119-.445l28.031-7.518c16.343 9.144 34.798 13.956 53.652 13.956 60.654 0 110-49.346 110-110s-49.346-110-110-110zm-168.699 381.18 1.677 50.03-20.441 8.966c-3.17 1.391-5.396 4.321-5.884 7.749-.488 3.427.831 6.862 3.487 9.082l22.127 18.494-19.801 16.5h-22.855l28.185-118.11c4.661 2.192 9.165 4.631 13.505 7.289zm-83.862 110.821-17.166-71.936h55.942l-17.166 71.936zm-43.418 0-19.801-16.5 22.127-18.494c2.656-2.22 3.975-5.655 3.487-9.082-.488-3.428-2.713-6.358-5.884-7.749l-20.441-8.966 1.677-50.033c4.34-2.658 8.844-5.096 13.505-7.288l28.185 118.112zm89.396-126.933c1.867.488 3.716 1.012 5.547 1.571l-7.977 33.426h-65.487l-7.977-33.428c1.81-.552 3.638-1.071 5.482-1.554 11.34 3.175 23.125 4.81 35.092 4.809 2.244 0 4.501-.058 6.756-.173 9.838-.504 19.399-2.093 28.564-4.651zm-29.587-15.323c-59.797 3.05-112.199-43.058-116.8-102.82-.401-5.21-4.746-9.232-9.971-9.232h-5.034c-7.375 0-13.374-6-13.374-13.374s6-13.374 13.378-13.374l1.869-.001 33.472 23.529v6.674c0 18.145 14.762 32.906 32.906 32.906h21.037c16.767 0 30.635-12.608 32.646-28.84h8.57c2.011 16.232 15.879 28.84 32.646 28.84h21.037c18.145 0 32.906-14.762 32.906-32.906v-6.674l33.471-23.529c.625 0 1.249.001 1.874.001 7.375 0 13.374 6 13.374 13.374s-6 13.374-13.374 13.374h-5.034c-5.225 0-9.569 4.022-9.971 9.232-4.292 55.75-49.703 99.953-105.628 102.82zm90.338-211.772h39.438c.525 2.003 1.111 3.988 1.749 5.957 1.638 7.16 2.482 14.558 2.482 22.09 0 9.006-1.227 17.839-3.611 26.385-3.09-.947-6.367-1.46-9.763-1.46-1.67 0-3.34 0-5.01-.004-.008 0-.016 0-.023 0-4.796 0-8.699-3.901-8.699-8.698 0-5.522-4.477-9.999-10-9.999h-8.989c-25.369 0-46.014-20.6-46.093-45.951l.409-9.151c12.061 12.813 29.166 20.831 48.11 20.831zm-58.525 23.098c11.687 18.703 32.464 31.172 56.097 31.172h.787c1.498 4.016 3.877 7.603 6.891 10.541l-16.499 11.598c-3.807-3.793-9.055-6.143-14.841-6.143h-44.771c-10.21 0-18.737 7.313-20.637 16.974h-8.854c-1.9-9.661-10.427-16.974-20.637-16.974h-44.771c-5.786 0-11.033 2.35-14.841 6.143l-16.497-11.597c3.015-2.938 5.393-6.526 6.891-10.543h75.585c23.633.001 44.41-12.468 56.097-31.171zm33.475 68.207v11.868c0 7.116-5.79 12.906-12.906 12.906h-21.037c-7.117 0-12.907-5.79-12.907-12.906v-11.868c0-.544.496-1.039 1.04-1.039h44.771c.554 0 1.039.486 1.039 1.039zm-94.899 0v11.868c0 7.116-5.79 12.906-12.906 12.906h-21.037c-7.117 0-12.906-5.79-12.906-12.906v-11.868c0-.554.485-1.039 1.039-1.039h44.771c.543 0 1.039.495 1.039 1.039zm151.1-111.305h-31.151c-25.37 0-46.016-20.603-46.094-45.955l.168-3.748c22.823 1.95 44.05 11.715 60.536 28.047 6.581 6.52 12.119 13.806 16.541 21.656zm-148.499-65.972c17.898 0 35.607 4.092 51.6 11.855l-.544 12.171c-2.107 23.479-21.883 41.946-45.901 41.946h-30.956c-5.523 0-10 4.478-10 10s4.477 10 10 10h30.956c16.824 0 32.197-6.324 43.878-16.713l-.199 4.439c-.003.077.003.151.001.228-.002.074-.011.145-.011.219 0 25.418-20.679 46.097-46.097 46.097h-83.789c-5.523 0-10 4.478-10 10 0 4.797-3.902 8.699-8.703 8.699l-5.03.002c-3.923 0-7.687.686-11.187 1.935-1.45-7.447-2.187-15.043-2.187-22.709 0-65.158 53.01-118.169 118.169-118.169zm-113.111 270.252c3.096-15.424 6.45-32.212 7.418-50.047 6.639 24.927 20.547 47.414 40.437 64.873 7.334 6.437 15.24 11.975 23.576 16.577-22.582 9.826-42.879 24.879-58.917 43.898-23.256-15.129-20.186-37.092-12.514-75.301zm40.952 74.25-1.368 40.809c-.137 4.089 2.231 7.85 5.978 9.493l11.868 5.205-18.939 15.83c-2.275 1.901-3.589 4.715-3.587 7.681.002 2.965 1.32 5.776 3.598 7.675l10.567 8.806h-53.894c2.151-37.483 19.098-71.452 45.777-95.499zm179.048 95.498 10.567-8.806c2.278-1.898 3.596-4.71 3.598-7.675.002-2.966-1.312-5.779-3.587-7.681l-18.939-15.83 11.868-5.205c3.747-1.644 6.115-5.404 5.978-9.493l-1.368-40.803c26.679 24.049 43.627 58.017 45.777 95.493zm36.557-94.445c-16.036-19.016-36.332-34.07-58.913-43.897 31.111-17.105 54.641-46.404 64.005-81.49.965 17.849 4.322 34.651 7.421 50.086 7.681 38.258 10.749 60.173-12.513 75.301zm119.734-197.556c-16.63 0-32.875-4.571-46.978-13.221-1.587-.974-3.399-1.476-5.229-1.476-.867 0-1.738.112-2.59.342l-28.494 7.642c2.547-9.503 5.095-18.999 7.643-28.495.712-2.652.302-5.479-1.134-7.82-3.577-5.833-6.445-12.036-8.592-18.478-.694-2.924-1.498-5.814-2.412-8.665-1.457-6.471-2.214-13.116-2.214-19.828 0-49.626 40.374-90 90-90s90 40.374 90 90-40.374 89.999-90 89.999z"/><path d="m68.021 137.973c5.523 0 10-4.478 10-10s-4.477-10-10-10h-.007c-5.523 0-9.996 4.478-9.996 10s4.48 10 10.003 10z"/><path d="m444.423 110 4.288-4.288c11.696-11.696 11.696-30.728 0-42.424-5.666-5.666-13.199-8.786-21.212-8.786s-15.546 3.12-21.212 8.786l-4.288 4.288-4.288-4.288c-5.666-5.666-13.199-8.786-21.212-8.786s-15.546 3.12-21.212 8.786c-11.696 11.696-11.696 30.728 0 42.424l4.288 4.288-4.289 4.288c-11.696 11.696-11.696 30.728 0 42.424 5.848 5.848 13.53 8.771 21.212 8.771s15.364-2.924 21.212-8.771l4.288-4.289 4.289 4.289c11.695 11.694 30.727 11.695 42.424 0 11.695-11.696 11.695-30.728 0-42.424zm-21.214 7.071 11.359 11.359c3.898 3.897 3.898 10.241 0 14.139-3.897 3.898-10.241 3.898-14.139 0l-11.36-11.359c-3.905-3.904-10.237-3.904-14.142 0l-11.359 11.359c-1.888 1.889-4.399 2.929-7.069 2.929s-5.181-1.04-7.069-2.929c-1.889-1.888-2.928-4.398-2.928-7.069s1.04-5.182 2.928-7.069l11.359-11.359c3.905-3.905 3.905-10.237 0-14.143l-11.359-11.36c-3.898-3.898-3.898-10.24 0-14.139 1.888-1.889 4.398-2.929 7.069-2.929 2.67 0 5.181 1.04 7.069 2.929l11.359 11.359c1.875 1.875 4.419 2.929 7.071 2.929s5.196-1.054 7.071-2.929l11.359-11.359c1.888-1.889 4.399-2.929 7.069-2.929 2.671 0 5.181 1.04 7.069 2.929 1.889 1.888 2.928 4.398 2.928 7.069s-1.04 5.182-2.928 7.069l-11.359 11.359c-1.875 1.876-2.929 4.419-2.929 7.071s1.056 5.198 2.931 7.073z"/></g></g></svg>